<svg xmlns="http://www.w3.org/2000/svg" viewBox="0 0 1600 1000" role="img" aria-labelledby="title desc">
  <title id="title">Commercial low-slope roof illustration</title>
  <desc id="desc">A stylized commercial roof with membrane sections, vents and skylights.</desc>
  <defs>
    <linearGradient id="bg" x1="0" y1="0" x2="1" y2="1"><stop stop-color="#0c2238"/><stop offset="1" stop-color="#30475f"/></linearGradient>
    <linearGradient id="membrane" x1="0" y1="0" x2="0" y2="1"><stop stop-color="#d4d8db"/><stop offset="1" stop-color="#939ca4"/></linearGradient>
    <linearGradient id="wall" x1="0" y1="0" x2="0" y2="1"><stop stop-color="#6d7379"/><stop offset="1" stop-color="#3f484f"/></linearGradient>
    <pattern id="grid" width="180" height="140" patternUnits="userSpaceOnUse"><path d="M0 0h180v140H0z" fill="none" stroke="#777f86" stroke-width="3" opacity=".6"/></pattern>
    <filter id="shadow"><feDropShadow dx="0" dy="28" stdDeviation="24" flood-opacity=".28"/></filter>
  </defs>
  <rect width="1600" height="1000" fill="url(#bg)"/>
  <circle cx="1375" cy="180" r="240" fill="#f4a51c" opacity=".13"/>
  <circle cx="250" cy="880" r="320" fill="#fff" opacity=".05"/>
  <g transform="translate(170 145)" filter="url(#shadow)">
    <path d="M90 220 770 35l590 255-688 221Z" fill="url(#membrane)"/>
    <path d="M90 220 672 511v250L90 480Z" fill="url(#wall)"/>
    <path d="M672 511 1360 290v246L672 761Z" fill="#505b64"/>
    <path d="M90 220 770 35l590 255-688 221Z" fill="url(#grid)" opacity=".75"/>
    <g fill="#e6ebed" stroke="#6d777e" stroke-width="8">
      <path d="m392 225 150-43 111 53-153 46z"/>
      <path d="m773 138 153-43 110 50-154 47z"/>
      <path d="m885 336 151-47 114 52-156 49z"/>
    </g>
    <g>
      <ellipse cx="673" cy="204" rx="54" ry="25" fill="#2c3740"/>
      <rect x="619" y="139" width="108" height="68" fill="#75808a"/>
      <ellipse cx="673" cy="139" rx="54" ry="24" fill="#aeb6bc"/>
      <ellipse cx="1140" cy="235" rx="49" ry="22" fill="#26323b"/>
      <rect x="1091" y="180" width="98" height="58" fill="#68747d"/>
      <ellipse cx="1140" cy="180" rx="49" ry="22" fill="#a7b0b6"/>
    </g>
    <path d="M90 220 672 511l688-221" fill="none" stroke="#f4a51c" stroke-width="14"/>
  </g>
</svg>
