<?xml version="1.0" standalone="no"?><!-- Generator: Gravit.io --><svg xmlns="http://www.w3.org/2000/svg" xmlns:xlink="http://www.w3.org/1999/xlink" style="isolation:isolate" viewBox="0 0 121 30" width="121" height="30"><defs><clipPath id="_clipPath_f0UbNDBXQ8aHAFPmOgnXs5adxYD8xIe2"><rect width="121" height="30"/></clipPath></defs><g clip-path="url(#_clipPath_f0UbNDBXQ8aHAFPmOgnXs5adxYD8xIe2)"><path d=" M 64.043 24.255 L 64.357 29.431 C 62.726 29.817 61.053 29.998 59.377 29.971 C 54.21 29.971 51.455 27.794 51.455 22.49 C 51.455 18.333 51.534 13.765 51.573 11.265 L 48.896 11.265 C 48.896 10.137 48.896 8.52 48.896 7.343 C 52.916 6.676 54.181 4.402 54.779 0.01 L 59.2 0.01 C 59.043 1.824 58.906 4.451 58.906 6.235 L 63.602 6.235 L 63.602 11.265 L 58.838 11.265 L 58.838 20.324 C 58.838 23.833 59.543 24.794 61.965 24.794 C 62.692 24.793 63.407 24.608 64.043 24.255 Z  M 88.71 18.637 C 88.71 16.676 88.71 14.049 88.71 14.049 C 88.71 8.167 86.132 5.51 78.828 5.51 C 74.73 5.51 71.808 6.225 67.23 6.225 C 67.485 10.363 67.494 15.471 67.475 18.627 C 67.455 21.784 67.367 27.608 67.23 29.471 L 75.073 29.471 C 74.896 27.608 74.73 22.245 74.759 18.627 C 74.759 16.569 74.759 14.078 74.867 10.735 C 75.786 10.424 76.75 10.265 77.72 10.265 C 80.465 10.265 81.347 11.549 81.347 15.098 C 81.347 15.098 81.347 17.324 81.347 18.627 C 81.347 21.843 81.24 27.608 81.102 29.471 L 88.945 29.471 C 88.847 27.608 88.691 22.245 88.71 18.627 L 88.71 18.637 Z  M 36.24 19.667 C 35.396 19.667 33.965 19.667 33.24 19.608 L 33.24 19.765 C 33.24 23.098 35.426 25.206 39.475 25.206 C 41.674 25.196 43.833 24.615 45.74 23.52 L 46.024 28.725 C 43.552 29.631 40.93 30.061 38.298 29.99 C 30.073 29.99 26.122 27.176 25.436 19.549 C 24.455 19.549 23.083 19.451 21.151 19.441 C 21.102 20.784 21.053 21.971 21.053 22.961 C 21.005 25.136 21.12 27.312 21.396 29.471 C 16.887 29.471 13.396 29.971 9.847 29.971 C 3.132 29.971 0.769 27.186 0.769 22.441 C 0.769 17.696 4.563 15.353 12.759 15.353 L 13.887 15.353 L 13.887 14.863 C 13.887 11.608 12.906 10.245 9.592 10.245 C 7.342 10.312 5.137 10.899 3.151 11.961 L 2.877 6.765 C 5.6 5.844 8.464 5.412 11.338 5.49 C 18.524 5.49 21.23 7.853 21.23 14.373 C 21.23 14.735 21.23 15.088 21.23 15.431 C 22.985 15.431 24.269 15.431 25.445 15.539 C 26.171 9.108 29.367 5.51 37.436 5.51 C 44.083 5.51 47.141 8.304 47.141 12.51 C 47.181 17.402 43.465 19.667 36.24 19.667 L 36.24 19.667 Z  M 13.818 25.176 C 13.7 23.598 13.749 21.314 13.769 19.363 C 13.494 19.363 13.112 19.363 12.789 19.363 C 9.377 19.363 8.014 20.51 8.014 22.529 C 8.014 24.549 9.083 25.471 11.583 25.471 C 12.337 25.463 13.087 25.364 13.818 25.176 L 13.818 25.176 Z  M 35.387 15.706 C 38.543 15.706 40.053 14.647 40.053 12.373 C 40.053 10.755 38.955 9.873 37.259 9.873 C 34.269 9.873 33.23 12.265 33.23 15.529 L 33.23 15.647 C 33.798 15.696 34.602 15.706 35.357 15.706 L 35.387 15.706 Z  M 112.377 29.431 C 107.867 29.431 104.377 29.931 100.828 29.931 C 94.112 29.931 91.749 27.147 91.749 22.402 C 91.749 17.657 95.534 15.314 103.74 15.314 L 104.867 15.314 L 104.867 14.824 C 104.867 11.569 103.887 10.206 100.573 10.206 C 98.322 10.273 96.118 10.86 94.132 11.922 L 93.857 6.725 C 96.594 5.792 99.476 5.353 102.367 5.431 C 109.563 5.431 112.259 7.794 112.259 14.314 C 112.259 17.804 112.034 20.794 112.034 22.902 C 111.963 25.096 112.058 27.291 112.318 29.471 L 112.377 29.431 Z  M 104.808 25.137 C 104.691 23.559 104.74 21.275 104.759 19.324 C 104.485 19.324 104.102 19.324 103.779 19.324 C 100.367 19.324 99.004 20.471 99.004 22.49 C 99.004 24.51 100.073 25.431 102.573 25.431 C 103.316 25.434 104.056 25.349 104.779 25.176 L 104.808 25.137 Z " fill="rgb(125,63,152)"/><path d=" M 114.857 10.539 C 114.593 10.234 114.39 9.882 114.259 9.5 C 114.12 9.096 114.05 8.672 114.053 8.245 C 114.051 7.817 114.124 7.393 114.269 6.99 C 114.408 6.628 114.614 6.295 114.877 6.01 C 115.152 5.713 115.486 5.476 115.857 5.314 C 116.682 4.969 117.611 4.969 118.436 5.314 C 118.808 5.474 119.142 5.711 119.416 6.01 C 119.678 6.296 119.884 6.628 120.024 6.99 C 120.169 7.392 120.242 7.817 120.24 8.245 C 120.241 8.673 120.168 9.097 120.024 9.5 C 119.89 9.883 119.684 10.235 119.416 10.539 C 119.141 10.836 118.807 11.073 118.436 11.235 C 117.611 11.58 116.682 11.58 115.857 11.235 C 115.478 11.078 115.137 10.84 114.857 10.539 Z  M 116.053 10.755 C 116.388 10.908 116.753 10.985 117.122 10.98 C 117.491 10.988 117.856 10.911 118.191 10.755 C 118.491 10.613 118.758 10.409 118.975 10.157 C 119.193 9.9 119.359 9.604 119.465 9.284 C 119.576 8.952 119.632 8.605 119.632 8.255 C 119.628 7.921 119.571 7.591 119.465 7.275 C 119.358 6.958 119.192 6.665 118.975 6.412 C 118.759 6.159 118.492 5.955 118.191 5.814 C 117.512 5.519 116.741 5.519 116.063 5.814 C 115.762 5.955 115.495 6.159 115.279 6.412 C 115.062 6.665 114.895 6.958 114.789 7.275 C 114.682 7.591 114.626 7.921 114.622 8.255 C 114.613 8.775 114.738 9.288 114.985 9.745 C 115.229 10.183 115.602 10.536 116.053 10.755 Z  M 115.985 6.284 L 116.543 6.284 L 117.034 6.284 C 117.449 6.245 117.864 6.36 118.2 6.608 C 118.432 6.818 118.561 7.119 118.553 7.431 C 118.556 7.581 118.533 7.731 118.485 7.873 C 118.44 7.997 118.373 8.114 118.289 8.216 C 118.209 8.313 118.112 8.396 118.004 8.461 C 117.902 8.525 117.789 8.572 117.671 8.598 L 117.671 8.598 L 118.651 10.176 C 118.6 10.208 118.543 10.231 118.485 10.245 L 118.328 10.245 C 118.236 10.245 118.146 10.225 118.063 10.186 C 117.971 10.138 117.896 10.062 117.847 9.971 L 117.063 8.667 L 116.583 8.667 L 116.583 10.196 L 116.004 10.196 L 115.985 6.284 Z  M 117.151 8.078 C 117.681 8.078 117.945 7.853 117.945 7.392 C 117.957 7.214 117.88 7.041 117.74 6.931 C 117.536 6.81 117.299 6.755 117.063 6.775 L 116.779 6.775 L 116.553 6.775 L 116.553 6.775 L 116.553 8.049 L 117.151 8.078 Z " fill="rgb(125,63,152)"/></g></svg>