<svg height="145.236875" viewBox=".13 .13 39.69 8.39" width="688.530373" xmlns="http://www.w3.org/2000/svg"><g fill="#0033a0" transform="translate(-92.0372 -188.9763)"><g transform="matrix(.26458333 0 0 .26458333 92.0372 188.9763)"><path d="m21.599609.5c-11.6000122 0-21.099609 6.9995968-21.099609 15.599609 0 8.600013 9.4995968 16.09961 21.099609 16.09961 11.699981 0 21.201172-7.499597 21.201172-16.09961 0-8.6000122-9.501191-15.599609-21.201172-15.599609zm0 1.0996094c10.099994 0 18.300782 6.4999874 18.300782 14.4999996 0 8.000013-8.200788 15-18.300782 15-10.099993 0-18.2988278-6.999987-18.2988278-15 0-8.0000122 8.1988348-14.4999996 18.2988278-14.4999996z"/><path d="m59 6.8007812-13.099609 20.0996098h4.5l3.298828-5.201172h7.5v5.201172h4.201172v-20.0996098zm2.199219 3.3984378v8h-5.199219c.400025-.499994 5.199219-8 5.199219-8z"/><path d="m148.80078 23.599609c-1.00002 0-1.70117.701147-1.70117 1.701172 0 .899981.70115 1.59961 1.70117 1.59961.99999 0 1.69922-.699629 1.69922-1.59961 0-1.000025-.69923-1.701172-1.69922-1.701172zm0 .201172c.79998 0 1.5.499975 1.5 1.5 0 .899981-.70002 1.398438-1.5 1.398438-.80001 0-1.40039-.498457-1.40039-1.398438 0-1.000025.60038-1.5 1.40039-1.5z"/><path d="m148.19922 24.300781v1.798828h.30078v-.699218h.19922l.60156.699218h.29883l-.5-.798828c.20009 0 .40039-.199905.40039-.5 0-.300056-.29923-.5-.69922-.5zm.30078.298828h.30078c.19994 0 .29883.101393.29883.201172 0 .199937-.09889.298828-.29883.298828h-.30078z"/></g><path d="m112.01324 196.09359h1.11125v-5.31813h-1.11125z" stroke-width=".264583"/><path d="m110.05532 196.09359h1.13771v-5.31813h-1.13771z" stroke-width=".264583"/><path d="m137.40039 11.300781c-1.90001 0-3.50117.599225-4.70117 1.699219-1.50002 1.400013-2.19922 3.499597-2.19922 6.099609 0 4.8 2.80001 7.800782 7.5 7.800782 2.19999 0 4.30001-.601179 6-1.701172l.09961-.09961-.5-3.099609-.19922.099609c-1.8 1.2-3.30001 1.701172-5 1.701172-2.19999 0-3.60077-1.400781-3.80078-3.800781h9.5l.09961-1c0-5.099981-2.29925-7.699219-6.69922-7.699219zm0 2.798828c2.09998 0 2.69922 1.800366 2.69922 3.400391h-5.5c.19994-2.200025 1.20076-3.400391 2.80078-3.400391z" transform="matrix(.26458333 0 0 .26458333 92.0372 188.9763)"/><path d="m124.36924 190.77546v1.27h-.55562v.84667h.55562v2.01083c0 .79375.42333 1.19063 1.34938 1.19063.29104 0 .47625-.0529.635-.0794h.0529l-.15875-.87312h-.0529c-.0794.0265-.15875.0265-.29105.0265-.3175 0-.47625-.13229-.47625-.42334v-1.85208h.79375l.0265-.84667h-.82021v-1.27h-1.05833" stroke-width=".264583"/><path d="m112.80078 11.300781c-2.50001 0-4.50002.599616-6 1.09961l-.10156.099609.5 3.201172.20117-.101563c1.8-.800012 3.39842-1.199218 4.89844-1.199218 1.59999 0 2.40039.700031 2.40039 2v.40039c-6.10001.6-9 2.500007-9 6 0 2.500007 1.70041 4.09961 4.40039 4.09961 1.90001 0 3.40041-.600385 4.90039-1.900391l.30078 1.599609h3.5v-10.298828c0-3.400025-1.90001-5-6-5zm1.89844 7.898438v3.300781c-1.00003.900019-2.09883 1.400391-3.29883 1.400391-.99999 0-1.59961-.599981-1.59961-1.5 0-1.699994 1.69843-2.801185 4.89844-3.201172z" transform="matrix(.26458333 0 0 .26458333 92.0372 188.9763)"/><path d="m117.67528 190.77548v1.27h-.55562v.84667h.55562v2.01083c0 .79375.44979 1.19063 1.34938 1.19063.29104 0 .47625-.0265.635-.0794h.0529l-.13229-.87312h-.0529c-.0794.0265-.18521.0265-.3175.0265-.3175 0-.47625-.13229-.47625-.42334v-1.85208h.8202v-.84667h-.8202v-1.27h-1.05834" stroke-width=".264583"/><path d="m114.07695 192.363c-.21167.21167-.3175.47625-.3175.79375.0265.79375.42333 1.03188 1.40229 1.27.635.1323.76729.23813.76729.52917 0 .23813-.15875.34396-.60854.34396s-.97896-.15875-1.40229-.42333l-.0794-.0529-.15875.87312.0529.0265c.34396.18521.92604.37042 1.56104.37042.60854 0 1.05834-.13229 1.32292-.39688.21167-.21166.3175-.5027.3175-.84666 0-.84667-.47625-1.05834-1.45521-1.29646-.60854-.15875-.71437-.23813-.71437-.47625.0265-.18521.21166-.3175.5027-.3175.37042 0 .84667.13229 1.24355.34396l.0529.0265.15875-.87313-.0529-.0265c-.39688-.15875-.87313-.26458-1.4023-.26458-.5027 0-.92604.15875-1.19062.39687" stroke-width=".264583"/><path d="m7.7011719 6.9003906-.9003907.9003906c.1001575 0 .2988282.1992188.2988282.1992188.1001575 0 1.3996345.9992439 1.5996094 1.1992188-.1001575.1001573-.5996094 1.5000002-.5996094 1.5000002-.4999937 1.2-1 2.4008-1 3.300781v.199219l.4003906 2.101562v.09961c.3000945 1.2.4992062 2.398809.6992188 3.298828 0 .300094.0012348.399993.2011718.5.6.6 1.6003844 1.900384 2.9003904 4.40039 0 .100158.09961.101393.09961.201172.100157.300095.300497.499641.40039.59961.300095.199937.700019.199937 1 0 .6-.399988 1.098457-.899603 1.398438-1.59961.100157.100158.40039.399994.40039.5-1.099993 1.8.799994 2.4992 1.5 2.199219-.399987 1.099994 1.100385 2.000391 2.400391 1.400391.199937.700006.800391.899993 1.400391 1 .499993.100157 1.3.199389 2.5.099609 1.900006-.199937 3.598821-.699584 4.298828-1.099609 1.400012-.700007 2.201575-1.599219 2.601562-2.199219l.199219-.201172c.100157.300094.300101.501159.5.701172.399987.399987.8992.599609 1.199219.599609.300094-.100157.501556-.199943.601562-.5.6-1.500019 1.999578-3.3 3.09961-4.5l.099609-.201172c.300094-.900019 1.099616-2.999615 1.599609-4.099609l.300782-.900391v-.199218c.100157-.300095.099609-.699981.099609-1 0-1.499981-.199149-2.89961-.699219-4.09961-.199937-.6-.399597-1.000762-.599609-1.300781l-.201172-.4003906c.300094-.4999937 1.200422-1.0999748 1.900391-1.5l.099609-.0996094-.898438-.9003906-.601562.4003906c-.700006.4000252-1.298834.6000063-1.798828.5 0-.1001575-.5-.4003906-.5-.4003906h-.201172-.199219-.199219-.101562l.201172.2011718c.400025.4999938.600373.7987967.90039 1.2988282l.09961.3007812.199219.4003906.201171.5996098.09961.099609.099609.300781.400391 1.400391c.399987 1.500019.499603 2.699231.599609 3.699219l-.099609.099609-.5 1.400391c-.499994 1.399974-1.100769 3.200384-1.300781 3.90039v.09961c-1.399975 1.400012-2.398841 3.000012-2.798829 4-.100156.100157-.101562.101393-.101562.201171-.100157 0-.298545-.200623-.398438-.300781-.300093-.300094-.5-.899603-.5-1.599609 0-.799975.400002-1.500366 1-1.900391.100158-.100157.09961-.300781.09961-.300781-.199937-.999987.09937-2.398841.699219-2.798828l.099609-.101563-.099609-.099609c-1.8-1.300006-2.599213-3.600391-2.699219-5.400391v-.199218l-.201172.099609c-.09978 0-.199219.201172-.199219.201172 0 .300094-.099609.700019-.099609 1 0 .900019.198671 1.699981.298828 2 .199937.899981.699987 1.799634 1.5 2.599609v.09961c-.300094.400025-.498047 1.299993-.498047 2 0 .199937-.000547.399596.099609.599609-.800011.6-.999603 1.499609-1.099609 2.099609v.601563l-.400391.5v.099609c-.800011 1.000025-1.299603 1.698828-2.599609 2.298828-1.399975.699969-4.000781 1.200013-5.800781 1-.6-.100157-.59961-.599609-.59961-.599609 0-.100157.09961-.198671.09961-.298828l.199219-.101563c1.599987.09978 3.200384-.098569 3.90039-.398437l.201172-.300781.099609-.09961h-.201171c-1.400013.300095-4.199597-.101323-5.59961-.701172-1.699993-.700006-2.199993-1.300006-3.5-3l-.40039-.5c0-.399987-.098891-.89884-.298829-1.298828-.300093-.399987-.601165-.601165-.701171-.701172.100157-.300094.201171-.699622.201171-1.099609 0-.6-.100844-1.100013-.300781-1.5.999988-.700006 1.5-1.50041 1.5-2.400391 0-.400025-.298828-1-.298828-1l-.400391-.199218.09961.300781c.100157 1.400012-1.300794 2.4-2.300781 3l-.199219.298828h.099609c.800013.499994.799622 2.000372.59961 2.900391l.101562.099609.400391.300781c.700006.999988.598765 2.50077-.201172 3.300781-.199937.199938-.198671.199219-.298828.199219-.100158 0-.201172-.300497-.201172-.40039l-.298828-.400391c-.6-1.300006-1.200391-2.398419-2.4003909-3.898438l-.1015625-.101562c-.199937-1.900006-.4988092-3.299206-.7988281-4.699219l-.2011719-.701172v-.199218c.1001575-1.500019.5015625-2.600385 1.1015625-3.900391l.2988281-.7988281.3007808-.7011719v-.0996094c.399988-.4000252.800788-.7992313 1.300782-1.1992187l.298828-.2011719-.400391-.0996094s-.499609.100523-1.099609.4003906h-.09961c-.4999927.1999371-1.0003649.3992692-1.4003901.1992188 0 0-.8999937-.4996031-1-.5996094zm7.3984371 17.9003904c.199937.199937.901153.799988 1.201172 1-1.100031.199937-1.501191-.499968-1.201172-1zm1.800782 1.398438c.499993.300094 1.299993.501159 2 .701172-1.499981.700006-2.400026.098992-2-.701172z" transform="matrix(.26458333 0 0 .26458333 92.0372 188.9763)"/><path d="m95.8472 189.74359c.0265.0265.0794.0794.0794.0794l.21167.18521.13229.13229c.10583.0794.13229.1323.13229.15875 0 0-.0265.0265-.0529.0265 0 0-.0265.0265-.0265.0265l-.0265.0794h.0529c.3175-.0265.58208.1852.76729.34395.34396.29105.58208.7673.635 1.21709l.23812 1.27.10584.18521.0264.0529.0265.0794c.0529.0794.10584.13229.10584.15875 0 0 .13229.0794.13229.0794l.18521.18521.0529.0529.0794.0794c0 .0265.26458.0529.26458.0529.44979.0529.42333.29104.42333.29104s.26459-.37042-.37041-.52917c0 0-.18521-.0264-.21167-.0264 0 0-.0529-.10584-.0529-.10584-.0264 0-.0264-.0265-.0264-.0265l-.21167-.1852-.0794-.0529c0-.0265-.0794-.21167-.0794-.21167l-.10583-.26458c-.0265-.0794-.0529-.21167-.0794-.39688l-.0265-.10583-.0794-.52917.0265-.10583c.0264-.21167.10583-.42333.23812-.66146.13229-.26458.42333-.44979.42333-.44979.21167-.13229.52917-.21167.68792-.23812.0794 0 .0794-.0529.10583-.0794v-.0265h-.0265c-.0794-.0265-.18521-.0529-.21167-.0529v-.0265s.0265-.0265.0529-.0794l.13229-.10583.0794-.0794s.34396-.3175.37042-.37041l-.3175-.0794c-.0265.0265-.34396.34396-.34396.34396-.21167.21167-.47625.47625-.58208.52917-.29104.10583-.58209.39687-.71438.635l-.0794.21166c-.0794-.23812-.18521-.44979-.34396-.60854-.15875-.18521-.37042-.34396-.60854-.42333-.13229-.13229-.58209-.52917-.82021-.71438z" stroke-width=".264583"/><path d="m97.7522 193.47421c.0265-.10583-.0265-.23812-.0265-.23812l-.0265.0794c-.0265.0794-.10583.15875-.23812.21167l-.0265.0265.44979.635.0265.0265.10583.13229s.18521.10583.18521.10583l.0529.0265.21166.13229.18521.10584h.0265l.29104.0265c.15875 0 .26458.0794.3175.10584.15875.13229.0794.3175.0794.3175s.23812-.21167.0794-.44979c-.0529-.0794-.13229-.15875-.37042-.18521l-.29104-.0529-.15875-.10583-.21166-.10584-.0529-.0264-.15875-.0794z" stroke-width=".264583"/><path d="m97.48761 194.82359.0529.0265s.18521.0794.18521.0794c.13229.0529.29104.13229.37042.15875l.21166.13229c.0265 0 .23813-.0264.37042 0 .18521 0 .3175.0794.39687.15875.0794.15875-.0264.29105-.0264.29105.0264-.0265.21166-.1323.21166-.34396-.0265-.18521-.18521-.34396-.82021-.34396l-.15875-.10583-.0529-.0265-.26459-.13229-.23812-.0794s-.0529-.0794-.0529-.0794c-.0794-.1323-.18521-.26459-.26458-.37042l-.0265-.0265s-.15875-.21167-.15875-.23812c.0265-.10584 0-.23813 0-.23813s-.0265.0529-.0794.10583c-.0265.0529-.15875.1323-.23813.15875l-.0265.0265.55563.74084z" stroke-width=".264583"/><path d="m96.77324 195.11463.10583.10583.21167.10584.18521.10583h.0265l.13229.0794.21166.10583c.0265.0265.0529.0265.0529.0265l.29104-.0265c.18521 0 .37042 0 .50271.0529.15875.0794.10583.21166.10583.21166s.15875-.10583.1323-.23812c-.0265-.10584-.15875-.23813-.58209-.26459-.13229 0-.34396 0-.34396 0h-.0264l-.18521-.10583-.0794-.0529c-.0265 0-.26458-.13229-.26458-.13229l-.18521-.0529c0-.0265-.13229-.21167-.13229-.21167l-.0529-.0794-.15875-.21166-.0794-.0794c0-.0265-.0794-.13229-.0794-.13229s.0794-.13229.0794-.26458c-.0265.0265-.0265.0265-.0794.0794s-.23812.13229-.37041.15875h-.0529l.42333.55563z" stroke-width=".264583"/></g></svg>