<?xml version="1.0" encoding="utf-8"?>
<!-- Generator: Adobe Illustrator 26.0.1, SVG Export Plug-In . SVG Version: 6.00 Build 0)  -->
<svg version="1.1" id="Layer_1" xmlns="http://www.w3.org/2000/svg" xmlns:xlink="http://www.w3.org/1999/xlink" x="0px" y="0px"
	 viewBox="0 0 229 68" style="enable-background:new 0 0 229 68;" xml:space="preserve">
<style type="text/css">
	.st0{fill:#003DA5;}
	.st1{fill:#D50032;}
</style>
<path class="st0" d="M225,60c2.1,0,4,1.7,4,4c0,2.3-1.8,4-4,4c-2.2,0-4-1.7-4-4C221,61.7,222.9,60,225,60z M225,67.4
	c1.8,0,3.3-1.5,3.3-3.4c0-1.9-1.4-3.4-3.3-3.4c-1.8,0-3.3,1.5-3.3,3.4C221.8,65.9,223.2,67.4,225,67.4z M223.5,61.6h1.8
	c1.1,0,1.6,0.4,1.6,1.3c0,0.8-0.5,1.2-1.3,1.3l1.3,2.1h-0.8l-1.3-2h-0.7v2h-0.7L223.5,61.6L223.5,61.6z M224.2,63.7h0.7
	c0.7,0,1.3,0,1.3-0.7c0-0.6-0.5-0.7-1-0.7h-1V63.7z"/>
<path class="st1" d="M221.8,15.7h-92.9L66.5,0L0,18.2l1.7,6.3L66.5,6.8l61.6,15.5h93.7V15.7z"/>
<path class="st0" d="M54.1,32.9H48v2.7h4.8v3.5H48v3.2h6v3.4H43.7V29.4h10.3V32.9z"/>
<path class="st0" d="M78,29.4h-4.4v16.3H78V29.4z"/>
<path class="st0" d="M190.3,29.4h-4.4v16.3h4.4V29.4z"/>
<path class="st0" d="M140.9,45.7h-4.4V29.4h10.3v3.5h-6v2.7h4.8v3.5h-4.8V45.7z"/>
<path class="st0" d="M194.6,45.7h10.3v-4.1h-6V29.4h-4.3V45.7z"/>
<path class="st0" d="M120.8,29.4v8.8l-4.4-8.8h-4.9v16.3h4.2v-8.8l4.4,8.8h4.9V29.4H120.8z"/>
<path class="st0" d="M15,29.4l5.5,16.3H16l-1.1-3.2h-4.5l-1.1,3.2H5.2l5.5-16.3H15z M13.9,39l-1.2-3.6L11.5,39H13.9z"/>
<path class="st0" d="M104.1,29.4l5.5,16.3h-4.4l-1.1-3.2h-4.5l-1.1,3.2h-4.1l5.5-16.3H104.1z M103,39l-1.2-3.6l-1.2,3.6H103z"/>
<path class="st0" d="M157,29.4l5.5,16.3h-4.4l-1.1-3.2h-4.5l-1.1,3.2h-4.1l5.5-16.3H157z M155.9,39l-1.2-3.6l-1.2,3.6H155.9z"/>
<path class="st0" d="M64.1,40.4l2,5.4h4.1l-2.4-6.6c1.6-0.9,2.4-2.3,2.4-4.5c0-1.6-0.5-3.2-1.7-4.1c-1-0.8-2.4-1-3.6-1h-7.2v16.3
	h4.4v-5.4H64.1z M62.1,36.3v-3.3h1.8c0.4,0,0.9,0,1.3,0.2c0.4,0.3,0.7,0.8,0.7,1.4c0,1.5-1.1,1.6-2.1,1.6H62.1z"/>
<path class="st0" d="M213.9,29.4l-3.1,5.9l-3.2-5.9h-4.2l5.2,10v6.3h4.4v-6.3l5.2-10H213.9z"/>
<path class="st0" d="M35.8,45.7v-7.4l-2.9,7.4h-3.1l-2.9-7.4v7.4h-4.2V29.4h4.9l3.8,9.8l3.8-9.8H40v16.3H35.8z"/>
<path class="st0" d="M177.4,45.7v-7.4l-2.9,7.4h-3.1l-2.9-7.4v7.4h-4.2V29.4h4.9l3.8,9.8l3.8-9.8h4.8v16.3H177.4z"/>
<path class="st0" d="M91.2,34c-0.7-0.7-1.4-1-2.3-1c-2,0-3.7,2.1-3.7,4.6c0,2.5,1.7,4.6,3.7,4.6c0.9,0,1.7-0.4,2.3-1l2.3,2.7
	c-1.3,1.4-3.1,2.3-5,2.3c-4.1,0-7.4-3.9-7.4-8.6c0-4.8,3.3-8.5,7.4-8.5c1.9,0,3.7,0.9,5,2.3L91.2,34z"/>
<path class="st0" d="M5.2,49h212.8v19H5.2V49z M108.9,60.3l2,3.3h4.3l-2.5-4.2c1.7-0.6,2.5-1.4,2.5-2.8c0-1-0.6-2-1.8-2.6
	c-1-0.5-2.4-0.7-3.7-0.7h-8.1v10.3h4.4v-3.3L108.9,60.3L108.9,60.3z M108.6,57.7c1,0,2.1-0.1,2.1-1c0-0.4-0.2-0.7-0.7-0.9
	c-0.4-0.1-0.8-0.1-1.3-0.1H106v2.1H108.6L108.6,57.7z M22.7,63.6H27V53.4h-4.4V63.6L22.7,63.6z M129.7,56.5l-1.3,3.5h2.6L129.7,56.5
	z M122.3,63.6h4.7l0.4-1.2h4.5l0.4,1.2h4.7l-4.7-10.3H127L122.3,63.6z M175.5,59.6c-0.4,1.3-1.2,1.8-2.5,1.8c-1.6,0-2.7-0.8-2.7-2.9
	c0-2.1,1.1-2.9,2.9-2.9c1.7,0,2.2,1,2.3,1.8h4.9c-0.6-4.1-4.6-4.4-7.2-4.4c-2.7,0-7.5,0.1-7.5,5.5c0,5.4,4.9,5.5,7.5,5.5
	c2.7,0,4.3-0.4,5.4-1.2c1.1-0.7,1.6-1.9,1.8-3.2H175.5L175.5,59.6z M188.4,63.6h12.3v-2.5h-7.9v-1.4h7.4v-2.5h-7.4v-1.4h7.9v-2.5
	h-12.3V63.6z M36.4,63.6h4.1v-5.1l4.7,5.1h4.7V53.4h-4.1v5.1h-0.1l-4.4-5.1h-5L36.4,63.6L36.4,63.6z M144.5,63.6h4.1v-5.1l4.7,5.1
	h4.7V53.4h-4.1v5.1h-0.1l-4.4-5.1h-5L144.5,63.6L144.5,63.6z M79.4,59.8c0,3.3,2.6,4.2,7,4.2s7-1,7-4.2v-6.4H89v6.2
	c0,1.3-1.3,1.7-2.7,1.7s-2.7-0.4-2.7-1.7v-6.2h-4.4V59.8z M66,60c0.6,0.1,0.8,0.4,0.8,0.7c0,0.5-0.4,0.8-1.7,0.8
	c-0.7,0-1.2-0.1-1.5-0.2c-0.3-0.1-0.4-0.4-0.4-0.7h-5.2c0,3,3.7,3.5,7,3.5c4.9,0,7.1-1.2,7.1-3.7c0-1.7-1.3-2.7-3.5-3l-5.2-0.7
	c-0.4-0.1-0.6-0.2-0.6-0.5c0-0.4,0.4-0.7,1.8-0.7c0.4,0,1,0.1,1.3,0.2c0.4,0.1,0.7,0.4,0.7,0.8h5c-0.1-2.2-2.1-3.3-7.1-3.3
	c-3.5,0-6.4,0.7-6.4,3.4c0,1.4,0.9,2.6,3,2.9L66,60z"/>
</svg>
