<svg width="164" height="60" viewBox="0 0 164 60" fill="none" xmlns="http://www.w3.org/2000/svg">
<g clip-path="url(#clip0_2130_6979)">
<path d="M47.0403 17.4217C51.7948 17.4217 55.1805 18.6845 58.3214 21.6408L54.4025 26.0033C51.9244 23.8508 49.6337 22.8893 46.9971 22.8893C42.1274 22.8893 38.4679 26.6922 38.4679 31.7149V31.801C38.4679 36.8811 42.1274 40.7127 46.9971 40.7127C50.2532 40.7127 52.2702 39.5216 54.6186 37.4695L58.5231 41.2868C55.1373 44.7596 51.7227 46.1803 46.781 46.1803C42.7037 46.1803 38.9577 44.7022 36.2203 42.033C33.5117 39.3781 32.0134 35.7761 32.0134 31.9015V31.8154C32.0134 23.6211 38.4679 17.4504 47.0259 17.4504M62.0961 17.9239H68.2481V45.6781H62.0961V17.9096V17.9239ZM86.7328 17.4504C91.4297 17.4504 94.7002 18.541 97.9706 21.1959L94.095 25.702C91.9339 23.9799 89.8881 22.9036 86.5167 22.9036C81.8631 22.9036 78.074 26.8644 78.074 31.7293V31.8154C78.074 37.0246 81.8199 40.7989 86.9778 40.7989C89.3406 40.7989 91.4441 40.2105 93.0577 39.1055L93.1009 39.0768V34.9151H86.6752V29.8206H99.0512V41.8177C95.4782 44.7309 91.3432 46.1947 86.7761 46.1947C82.4682 46.1947 78.5782 44.7453 75.8408 42.1335C73.1322 39.536 71.6338 35.9053 71.6338 31.9015V31.8154C71.6338 27.955 73.1466 24.3387 75.9128 21.6695C78.7223 18.9428 82.5691 17.4504 86.7328 17.4504ZM122.132 29.9928C122.132 25.0849 120.662 22.918 116.239 22.918C112.22 22.918 109.612 25.8455 109.612 30.1076V45.7211H103.46V17.9096H109.612V21.3394C111.629 18.3975 114.582 17.436 117.637 17.436C123.904 17.436 128.27 21.5403 128.27 28.0698V45.6781H122.118V29.9641L122.132 29.9928ZM142.763 28.1416C137.245 28.1416 131.742 31.9876 131.742 37.5843C131.742 44.0564 137.245 46.1803 141.337 46.1803C146.034 46.1803 147.777 44.2287 149.232 42.851V45.6924H155.572V28.1559C155.572 20.5932 151.35 17.436 144.089 17.436C139.493 17.436 137.159 18.4119 133.975 19.7752L135.704 24.6831C138.268 23.6642 139.925 22.8462 143.152 22.8462C147.028 22.8462 149.29 24.9414 149.29 27.9263V29.3327L149.146 29.2896C146.913 28.4286 145.962 28.1416 142.763 28.1416ZM143.196 41.0715C139.579 41.0715 138.067 39.4786 138.067 36.9529C138.067 34.7142 139.94 32.9347 144.233 32.9347C146.365 32.9347 148.498 33.6379 149.391 34.0828V34.6998C149.391 38.1583 145.875 41.0859 143.196 41.0859M108.358 55.9101V55.8814C108.358 53.5996 110.145 51.734 112.58 51.734C114.021 51.734 114.914 52.1215 115.749 52.839L114.626 54.188C114.021 53.6714 113.444 53.37 112.522 53.37C111.226 53.37 110.203 54.5037 110.203 55.867V55.8957C110.203 57.3595 111.211 58.4501 112.637 58.4501C113.3 58.4501 113.862 58.2923 114.309 57.9622V56.8142H112.522V55.293H116.023V58.7802C115.188 59.4834 114.049 60.0574 112.58 60.0574C110.073 60.0574 108.344 58.3066 108.344 55.9244M118.89 51.8919H122.579C123.602 51.8919 124.394 52.1646 124.927 52.7099C125.388 53.1691 125.619 53.7718 125.619 54.5468V54.5755C125.619 55.867 124.913 56.685 123.89 57.0725L125.863 59.9426H123.789L122.06 57.3738H120.662V59.9426H118.89V51.9062V51.8919ZM122.463 55.7953C123.342 55.7953 123.818 55.3504 123.818 54.6616V54.6329C123.818 53.8579 123.299 53.4848 122.42 53.4848H120.662V55.7953H122.463ZM128.01 55.9388V55.9101C128.01 53.6283 129.826 51.7627 132.304 51.7627C134.782 51.7627 136.583 53.614 136.583 55.8957V55.9244C136.583 58.2062 134.767 60.0718 132.289 60.0718C129.811 60.0718 128.01 58.2205 128.01 55.9388ZM134.724 55.9388V55.9101C134.724 54.5324 133.716 53.3844 132.275 53.3844C130.834 53.3844 129.854 54.5037 129.854 55.8814V55.9101C129.854 57.2877 130.863 58.4358 132.289 58.4358C133.716 58.4358 134.71 57.3164 134.71 55.9388M139.162 56.4841V51.8919H140.934V56.441C140.934 57.7613 141.582 58.4214 142.677 58.4214C143.772 58.4214 144.42 57.7757 144.42 56.4984V51.8919H146.192V56.4267C146.192 58.8663 144.824 60.0574 142.648 60.0574C140.473 60.0574 139.162 58.8663 139.162 56.4841ZM149.146 51.8919H152.445C154.376 51.8919 155.528 53.0112 155.528 54.6759V54.7046C155.528 56.5702 154.073 57.5317 152.272 57.5317H150.918V59.9426H149.146V51.9062V51.8919ZM152.33 55.9388C153.223 55.9388 153.742 55.4078 153.742 54.719V54.6903C153.742 53.901 153.194 53.4705 152.301 53.4705H150.932V55.9244H152.344L152.33 55.9388ZM45.5419 5.22363H43.0927V3.60201H49.7633V5.22363H47.3141V11.6097H45.5419V5.22363ZM52.2558 11.6097H54.0279V8.39512H57.2984V11.6097H59.0705V3.60201H57.2984V6.7735H54.0279V3.60201H52.2558V11.6097ZM62.1393 11.6097H68.2625V10.0454H63.897V8.36642H67.6862V6.8022H63.897V5.18058H68.2049V3.61636H62.1393V11.624V11.6097ZM158.006 55.1782C158.194 55.1782 158.352 55.1638 158.482 55.1208C158.712 55.0347 158.828 54.8912 158.828 54.6616C158.828 54.5324 158.77 54.432 158.655 54.3602C158.54 54.2885 158.367 54.231 158.122 54.1736L157.704 54.0875C157.301 54.0014 157.012 53.901 156.854 53.7862C156.595 53.5996 156.465 53.327 156.465 52.9395C156.465 52.5951 156.595 52.2937 156.839 52.0641C157.084 51.8345 157.473 51.7197 157.963 51.7197C158.381 51.7197 158.727 51.8345 159.015 52.0498C159.303 52.265 159.462 52.5807 159.476 52.9969H158.684C158.684 52.7673 158.568 52.5951 158.381 52.4946C158.251 52.4229 158.093 52.3942 157.906 52.3942C157.69 52.3942 157.531 52.4372 157.401 52.5233C157.272 52.6094 157.214 52.7242 157.214 52.8821C157.214 53.0256 157.272 53.126 157.401 53.1978C157.473 53.2409 157.646 53.2983 157.906 53.3557L158.583 53.5135C158.885 53.5853 159.101 53.6857 159.246 53.8005C159.476 53.9871 159.591 54.2454 159.591 54.6042C159.591 54.9629 159.462 55.2499 159.174 55.4939C158.9 55.7235 158.511 55.8527 158.021 55.8527C157.531 55.8527 157.113 55.7379 156.811 55.5083C156.523 55.2786 156.378 54.9629 156.378 54.5468H157.156C157.185 54.719 157.228 54.8625 157.301 54.9486C157.43 55.1064 157.661 55.1925 157.978 55.1925L158.006 55.1782ZM160.96 55.7379H160.196V51.8345H161.392L162.098 54.9055L162.804 51.8345H163.986V55.7379H163.222V53.0973C163.222 53.0256 163.222 52.9108 163.222 52.7816C163.222 52.6525 163.222 52.5377 163.222 52.4659L162.487 55.7379H161.695L160.96 52.4659C160.96 52.5377 160.96 52.6525 160.96 52.7816C160.96 52.9251 160.96 53.0256 160.96 53.0973V55.7379Z" fill="#110081"/>
<path d="M8.39955 38.6319C5.93588 39.1485 3.41457 38.474 1.82975 36.8811L1.74331 36.795L1.78653 36.6802C2.60775 34.5276 4.6392 32.8199 7.08847 32.2028C9.58096 31.5857 12.059 32.2028 13.8744 33.9105L13.9752 33.9967L13.9176 34.1258C12.9235 36.4793 10.9064 38.1153 8.39955 38.6463M22.8214 30.0789L22.9943 29.878L22.8502 29.6484C21.7264 27.7685 19.767 26.5917 17.4907 26.4052C15.2575 26.233 13.0964 27.0509 11.8429 28.5578L11.6844 28.7443L11.7997 28.9596C12.7506 30.696 14.7388 31.9302 16.9576 32.1885C19.234 32.4611 21.3518 31.6862 22.7926 30.0646M9.66741 28.6582L9.81148 28.486L9.69622 28.2851C8.86059 26.7926 7.1461 25.7163 5.2011 25.5011C3.22727 25.2858 1.38312 25.9746 0.129673 27.3954L-0.0288086 27.5819L0.100858 27.7972C1.08057 29.4188 2.78064 30.4377 4.76887 30.5812C6.71388 30.7247 8.58685 29.9928 9.66741 28.6726M6.23843 23.535C8.61566 24.8696 11.2954 24.9988 13.615 23.8795L13.9176 23.7359L13.86 23.3915C13.4566 20.8084 11.8429 18.6271 9.42248 17.3786C7.04525 16.1588 4.29343 16.0727 2.24757 17.1634L1.97383 17.3069L2.01705 17.6226C2.29079 19.9617 3.91883 22.2291 6.25284 23.535M16.5542 17.0342L16.1364 17.1203L16.0787 17.5508C15.7762 19.5743 16.6118 21.8704 18.2687 23.535C19.9543 25.2284 22.1731 25.989 24.363 25.6159L24.824 25.5441L24.8817 25.0706C24.9249 24.6831 24.9393 24.2956 24.9105 23.9082C24.8096 22.0713 23.974 20.3061 22.5333 18.9572C20.8188 17.3643 18.528 16.618 16.5686 17.0342M9.49452 14.7668C11.0649 16.044 13.0676 16.5606 14.7388 16.0871L15.0558 16.001L15.0846 15.6565C15.1134 15.3265 15.099 14.9821 15.0702 14.652C14.8973 13.1882 14.1049 11.7101 12.8803 10.6195C11.3387 9.25616 9.37926 8.72519 7.50629 9.17005L7.16051 9.25616V9.62928C7.04525 11.581 7.9097 13.4609 9.49452 14.7668ZM22.2883 15.47L22.807 15.5991L23.0663 15.1399C23.8587 13.7336 24.2045 12.1406 24.1181 10.5334C24.0604 9.44272 23.7867 8.33772 23.3113 7.27577C22.1587 4.69266 19.9687 2.76967 17.5915 2.28175L17.1161 2.1813L16.8567 2.59746C15.5745 4.69266 15.4448 7.62019 16.4965 10.2464C17.5771 12.9299 19.6806 14.8242 22.2883 15.47ZM39.0874 3.98948L38.8569 3.60201L38.4247 3.68811C36.278 4.10428 34.3041 5.81201 33.2812 8.15116C32.2295 10.5334 32.3303 13.1452 33.5406 15.2978L33.7855 15.7283L34.2465 15.6135C35.644 15.2834 36.8975 14.5515 37.8628 13.4896C38.5255 12.7721 39.0586 11.911 39.4476 10.9352C40.3985 8.55298 40.2544 5.89811 39.0874 3.97513M17.6347 39.3638C18.6577 39.3638 19.7238 39.0911 20.7035 38.5745C22.5333 37.5843 23.7147 35.8909 23.9596 33.9249V33.8531L23.902 33.8244C22.1875 33.0639 20.2137 33.2074 18.4848 34.2263C16.7271 35.2595 15.5456 37.0103 15.3872 38.7898V38.8472L15.4448 38.8759C16.1075 39.2059 16.8567 39.3638 17.6491 39.3638M18.6288 42.0904L18.6 42.0043H18.4992C16.4965 41.9756 14.638 42.9227 13.3413 44.6305C12.0302 46.3812 11.5548 48.5912 12.1167 50.4138L12.1455 50.4999H12.2319C12.3184 50.4999 12.4048 50.4999 12.4913 50.4999C14.2058 50.4999 16.0067 49.5671 17.2745 48.0172C18.6865 46.2808 19.1763 44.1282 18.6144 42.0904M26.3368 46.6683L26.236 46.7257C24.824 47.4575 23.8443 48.8352 23.585 50.5286C23.3113 52.222 23.7867 53.9153 24.8096 54.9629L24.8817 55.0347L24.9825 54.9916C26.2792 54.3889 27.2877 52.9825 27.6191 51.3322C27.9649 49.6245 27.5182 47.9455 26.4233 46.7544L26.3512 46.6683H26.3368ZM35.3991 46.5822L35.2983 46.5535L35.2406 46.6539C34.5347 47.9742 34.5347 49.5671 35.2406 51.0165C35.9034 52.3942 37.128 53.4131 38.3959 53.6427H38.4967L38.5399 53.5709C39.2171 52.4085 39.2459 50.7725 38.612 49.3375C37.978 47.9024 36.811 46.8979 35.3991 46.5822ZM13.86 39.9235V39.8517L13.7879 39.823C12.3616 39.1916 10.5174 39.3781 8.96144 40.2966C7.31899 41.2724 6.29606 42.8653 6.15199 44.6879V44.774L6.22402 44.8027C6.84355 45.0466 7.47747 45.1614 8.12581 45.1614C9.17755 45.1614 10.2293 44.8457 11.1802 44.2287C12.765 43.2098 13.7879 41.5594 13.86 39.9235ZM25.3859 43.0663C26.2504 41.4446 26.3224 39.6221 25.5588 38.0579L25.53 37.9861H25.4436C23.8155 38.2875 22.4468 39.3781 21.6688 40.9854C20.8764 42.607 20.8332 44.4726 21.568 45.8503L21.5968 45.922H21.6688C23.1384 45.7068 24.5503 44.6161 25.3715 43.0806M20.9917 47.7589H20.9196C19.8535 47.9311 18.8161 48.7348 18.2254 49.8685C17.6059 51.0596 17.5771 52.3942 18.139 53.5279L18.1678 53.5996H18.2398C19.4212 53.3557 20.4298 52.552 20.9773 51.3753C21.5391 50.1842 21.5536 48.8209 21.0061 47.8163L20.9773 47.7589H20.9917ZM28.2818 9.72973L28.6996 10.0454L29.1175 9.71538C30.5438 8.59603 31.3218 6.8309 31.2642 4.87922C31.1921 2.97058 30.3133 1.20545 28.9446 0.272662L28.5412 0L28.1522 0.287013C26.8123 1.26286 25.991 3.05668 25.9766 4.96532C25.9766 5.00837 25.9766 5.05142 25.9766 5.08012C26.0055 6.97441 26.8411 8.66778 28.2818 9.72973ZM28.9158 23.535L29.4056 23.1476C31.1345 21.7843 32.071 19.6747 31.999 17.3069C31.9269 14.9964 30.8464 12.8725 29.2039 11.7532L28.7141 11.4231L28.2386 11.7675C26.625 12.9443 25.6309 15.0969 25.6165 17.4073C25.6165 17.4504 25.6165 17.5078 25.6165 17.5508C25.6597 19.8469 26.6538 21.8704 28.3827 23.1619L28.8869 23.535H28.9158ZM31.0048 47.4575L31.0625 47.4001C32.0566 46.4099 32.5176 44.7883 32.2727 43.1524C32.0134 41.4877 31.0769 40.1244 29.6938 39.3925L29.6217 39.3494L29.5641 39.4212C28.4979 40.5692 28.0657 42.1622 28.3827 43.8125C28.6852 45.4341 29.6649 46.8118 30.9328 47.4145L31.0048 47.4432V47.4575ZM31.221 48.8783L31.1633 48.8496L31.1201 48.8926C30.3133 49.7536 29.9963 50.9591 30.2268 52.2076C30.4574 53.4274 31.1921 54.475 32.1574 54.9342L32.2151 54.9629L32.2583 54.9199C33.0075 54.1736 33.3533 52.9395 33.166 51.7197C32.9787 50.4712 32.2727 49.4379 31.221 48.8783Z" fill="#03CC54"/>
</g>
<defs>
<clipPath id="clip0_2130_6979">
<rect width="164" height="60" fill="white"/>
</clipPath>
</defs>
</svg>
