<svg xmlns="http://www.w3.org/2000/svg" xmlns:svg="http://www.w3.org/2000/svg" viewBox="0 0 66.13 16.75">
 <g class="layer">
  <title>Layer 1</title>
  <path d="m14.88,9.28c0,0.41 0.18,0.55 0.78,0.55c0.64,0 0.92,-0.18 1.33,-1.05l0.14,0c-0.14,1.33 -0.14,1.33 -0.14,1.33c-3.91,0 -3.91,0 -3.91,0l0,-0.14c0.6,-0.14 0.64,-0.28 0.64,-0.82l0,-3.25c0,-0.46 -0.09,-0.6 -0.64,-0.73l0,-0.14l2.44,0c0,0.14 0,0.14 0,0.14c-0.51,0.14 -0.64,0.28 -0.64,0.69l0,3.44l0,-0.02z" fill="#616265" id="svg_6"/>
  <path d="m18.79,9.42c0,0.32 0.18,0.5 0.55,0.55c0,0.14 0,0.14 0,0.14c-2.07,0 -2.07,0 -2.07,0l0,-0.14c0.41,-0.09 0.55,-0.23 0.55,-0.64l0,-1.74c0,-0.41 -0.14,-0.5 -0.6,-0.6l0,-0.14c1.42,-0.14 1.42,-0.14 1.42,-0.14l0.14,0l0,2.7l0.01,0.01zm-0.51,-4.76c0.32,0 0.6,0.28 0.6,0.6c0,0.32 -0.27,0.55 -0.6,0.55c-0.27,0 -0.55,-0.23 -0.55,-0.55c0,-0.32 0.28,-0.6 0.55,-0.6" fill="#616265" id="svg_7"/>
  <path d="m20.95,7.54c0.32,-0.32 0.51,-0.41 0.78,-0.41c0.55,0 0.96,0.6 0.96,1.37c0,1.05 -0.51,1.51 -1.24,1.51c-0.37,0 -0.51,-0.18 -0.51,-0.55l0,-1.92l0.01,0zm0,-2.89c-0.14,0 -0.14,0 -0.14,0c-1.33,0.09 -1.33,0.09 -1.33,0.09c0,0.18 0,0.18 0,0.18c0.27,0.04 0.46,0.18 0.46,0.46c0,4.72 0,4.72 0,4.72c0.51,0.09 1.01,0.14 1.61,0.14c1.61,0 2.25,-0.82 2.25,-1.83c0,-0.96 -0.69,-1.7 -1.61,-1.7c-0.46,0 -0.87,0.18 -1.24,0.6l0,-2.66z" fill="#616265" id="svg_8"/>
  <path d="m25.22,8c0.05,-0.64 0.28,-1.05 0.69,-1.05c0.41,0 0.69,0.41 0.74,1.05l-1.43,0zm2.48,0.18c-0.09,-0.92 -0.78,-1.47 -1.7,-1.47c-1.06,0 -1.84,0.78 -1.84,1.79c0,1.01 0.78,1.74 1.79,1.74c0.78,0 1.47,-0.41 1.75,-1.15c-0.14,0 -0.14,0 -0.14,0c-0.32,0.5 -0.69,0.73 -1.19,0.73c-0.6,0 -1.19,-0.55 -1.15,-1.65l2.48,0l0,0.01z" fill="#616265" id="svg_9"/>
  <path d="m30.88,8c-0.28,-0.32 -0.51,-0.46 -0.74,-0.46c-0.32,0 -0.51,0.14 -0.74,0.46c0,1.37 0,1.37 0,1.37c0,0.37 0.09,0.5 0.55,0.6c0,0.14 0,0.14 0,0.14c-2.07,0 -2.07,0 -2.07,0l0,-0.14c0.41,-0.09 0.55,-0.23 0.55,-0.6l0,-1.74c0,-0.41 -0.18,-0.6 -0.64,-0.64l0,-0.14c1.47,-0.14 1.47,-0.14 1.47,-0.14l0.14,0c0,1.05 0,1.05 0,1.05c0.32,-0.73 0.69,-1.05 1.1,-1.05c0.23,0 0.41,0.09 0.6,0.28l-0.23,1.01l0.01,0z" fill="#616265" id="svg_10"/>
  <path d="m36.44,6.85c0,0.14 0,0.14 0,0.14c0.41,0.09 0.51,0.32 0.23,1.05c-0.46,1.05 -0.46,1.05 -0.46,1.05c-0.69,-1.47 -0.69,-1.47 -0.69,-1.47c-0.23,-0.41 -0.23,-0.6 0.14,-0.64l0,-0.14c-1.88,0 -1.88,0 -1.88,0c-0.04,0 -0.04,0 -0.04,0c-0.96,0 -0.96,0 -0.96,0l0,-1.28c-0.18,0 -0.18,0 -0.18,0c-0.46,0.6 -0.96,1.1 -1.38,1.37c0,0.14 0,0.14 0,0.14l0.6,0c0,2.11 0,2.11 0,2.11c0,0.78 0.46,1.05 1.1,1.05c0.5,0 0.83,-0.18 1.06,-0.6c-0.09,-0.09 -0.09,-0.09 -0.09,-0.09c-0.18,0.18 -0.32,0.28 -0.51,0.28c-0.46,0 -0.6,-0.32 -0.6,-0.82l0,-1.92l0.87,0c0.51,0 0.64,0.18 0.83,0.64c1.19,2.52 1.19,2.52 1.19,2.52c-0.37,1.1 -0.74,1.51 -1.33,1.51c-0.14,0 -0.23,0 -0.46,-0.09c-0.18,1.01 -0.18,1.01 -0.18,1.01l0.28,0c0.69,0 1.06,-0.28 1.38,-1.05c1.7,-3.8 1.7,-3.8 1.7,-3.8c0.23,-0.6 0.37,-0.73 0.78,-0.82l0,-0.14l-1.38,0l-0.02,-0.01z" fill="#616265" id="svg_11"/>
  <path d="m45.95,9.19c0.09,0.46 0.28,0.73 0.78,0.83c0,0.14 0,0.14 0,0.14c-2.53,0 -2.53,0 -2.53,0l0,-0.14c0.55,-0.14 0.64,-0.46 0.55,-1.15c-0.41,-2.89 -0.41,-2.89 -0.41,-2.89c-1.65,4.17 -1.65,4.17 -1.65,4.17c-0.18,0 -0.18,0 -0.18,0c-1.66,-4.17 -1.66,-4.17 -1.66,-4.17c-0.46,2.98 -0.46,2.98 -0.46,2.98c-0.09,0.6 0.05,1.01 0.6,1.05c0,0.14 0,0.14 0,0.14c-1.84,0 -1.84,0 -1.84,0l0,-0.14c0.55,-0.05 0.78,-0.37 0.92,-1.15c0.51,-3.3 0.51,-3.3 0.51,-3.3c-0.23,-0.23 -0.51,-0.37 -0.74,-0.37l0,-0.14l1.84,0c1.33,3.34 1.33,3.34 1.33,3.34c1.33,-3.34 1.33,-3.34 1.33,-3.34l1.75,0c0,0.14 0,0.14 0,0.14c-0.55,0.09 -0.64,0.37 -0.6,0.82l0.46,3.16l0,0.02z" fill="#616265" id="svg_12"/>
  <path d="m47.15,7.59c0,-0.37 -0.14,-0.5 -0.51,-0.55l0,-0.18c1.33,-0.14 1.33,-0.14 1.33,-0.14l0.14,0c0,2.43 0,2.43 0,2.43c0,0.41 0.28,0.6 0.64,0.6c0.32,0 0.51,-0.14 0.78,-0.6l0,-1.65c0,-0.28 -0.14,-0.41 -0.5,-0.46l0,-0.18c1.38,-0.14 1.38,-0.14 1.38,-0.14l0.14,0c0,2.61 0,2.61 0,2.61c0,0.46 0.09,0.55 0.51,0.69c0,0.14 0,0.14 0,0.14c-1.52,0.14 -1.52,0.14 -1.52,0.14l0,-0.83c-0.37,0.55 -0.78,0.83 -1.29,0.83c-0.69,0 -1.1,-0.37 -1.1,-1.01l0,-1.7z" fill="#616265" id="svg_13"/>
  <path d="m51.84,7.13c-0.6,0 -0.6,0 -0.6,0l0,-0.18c0.41,-0.23 0.96,-0.78 1.42,-1.33l0.14,0c0,1.24 0,1.24 0,1.24l1.1,0c0,0.28 0,0.28 0,0.28c-1.1,0 -1.1,0 -1.1,0c0,1.88 0,1.88 0,1.88c0,0.55 0.14,0.87 0.6,0.87c0.18,0 0.32,-0.09 0.51,-0.28c0.09,0.09 0.09,0.09 0.09,0.09c-0.23,0.41 -0.55,0.6 -1.06,0.6c-0.6,0 -1.1,-0.32 -1.1,-1.05l0,-2.11l0,-0.01z" fill="#616265" id="svg_14"/>
  <path d="m54.55,7.59c0,-0.37 -0.14,-0.5 -0.55,-0.55l0,-0.18c1.38,-0.14 1.38,-0.14 1.38,-0.14l0.14,0c0,2.43 0,2.43 0,2.43c0,0.41 0.28,0.6 0.6,0.6c0.37,0 0.55,-0.14 0.83,-0.6l0,-1.65c0,-0.28 -0.18,-0.41 -0.51,-0.46l0,-0.18c1.33,-0.14 1.33,-0.14 1.33,-0.14l0.18,0c0,2.61 0,2.61 0,2.61c0,0.46 0.09,0.55 0.51,0.69c0,0.14 0,0.14 0,0.14c-1.52,0.14 -1.52,0.14 -1.52,0.14l0,-0.83c-0.37,0.55 -0.78,0.83 -1.33,0.83c-0.64,0 -1.06,-0.37 -1.06,-1.01l0,-1.7z" fill="#616265" id="svg_15"/>
  <path d="m60.71,9.6c-0.23,0.18 -0.41,0.32 -0.6,0.32c-0.28,0 -0.46,-0.23 -0.46,-0.6c0,-0.46 0.23,-0.64 1.06,-1.01l0,1.28l0,0.01zm1.01,-1.65c0,-0.92 -0.74,-1.24 -1.47,-1.24c-0.78,0 -1.29,0.41 -1.47,1.15l0.14,0c0.23,-0.37 0.55,-0.55 0.96,-0.55c0.6,0 0.83,0.27 0.83,0.87c-0.78,0.27 -2.11,0.37 -2.11,1.24c0,0.46 0.46,0.87 1.01,0.87c0.41,0 0.69,-0.09 1.01,-0.41c0.09,-0.05 0.09,-0.05 0.09,-0.05c0.18,0.32 0.41,0.46 0.78,0.46c0.51,0 0.78,-0.23 0.83,-0.64c-0.14,0 -0.14,0 -0.14,0c-0.05,0.18 -0.14,0.32 -0.28,0.32s-0.18,-0.14 -0.18,-0.46l0,-1.56z" fill="#616265" id="svg_16"/>
  <path d="m63,5.62c0,-0.46 -0.18,-0.64 -0.64,-0.69l0,-0.14c1.47,-0.09 1.47,-0.09 1.47,-0.09l0.14,0c0,4.63 0,4.63 0,4.63c0,0.46 0.09,0.55 0.6,0.69c0,0.14 0,0.14 0,0.14c-2.21,0 -2.21,0 -2.21,0l0,-0.14c0.51,-0.09 0.64,-0.23 0.64,-0.69l0,-3.71z" fill="#616265" id="svg_17"/>
  <path d="m11.94,6.67c-0.04,-0.05 -0.14,0 -0.14,0c-1.56,0.55 -1.56,0.55 -1.56,0.55c-0.09,-0.27 -0.23,-0.55 -0.41,-0.82c0.51,-1.33 0.51,-1.33 0.51,-1.33s0.05,-0.14 0,-0.18c-0.04,-0.04 -0.14,0.05 -0.14,0.05c-0.92,0.73 -0.92,0.73 -0.92,0.73c-0.32,-0.37 -0.74,-0.64 -1.24,-0.87c-0.14,-0.09 -0.32,-0.14 -0.55,-0.18c-0.27,-1.1 -0.27,-1.1 -0.27,-1.1s0,-0.09 -0.09,-0.09c-0.04,0 -0.09,0.09 -0.09,0.09c-0.18,0.96 -0.18,0.96 -0.18,0.96c-0.18,-0.05 -0.37,-0.05 -0.6,-0.05c-0.69,0 -1.29,0.14 -1.79,0.37c-0.23,0.09 -0.41,0.23 -0.64,0.37c0,0 -0.05,0.05 -0.09,0.05c-0.18,-0.46 -0.32,-0.87 -0.37,-0.96c0.14,-0.09 0.32,-0.46 0.37,-0.69c0.09,-0.32 0.09,-0.46 0,-0.73c-0.05,-0.14 -0.18,-0.32 -0.18,-0.46c0.05,-0.05 0.05,-0.14 0.09,-0.18c0,-0.09 -0.09,-0.14 -0.18,-0.14c-0.09,-0.04 -0.14,0 -0.23,0c0,-0.04 -0.05,-0.04 0,-0.14c0.04,-0.18 0.37,-0.28 0.69,-0.41c0.37,-0.14 0.55,-0.41 0.55,-0.83c0.04,-0.32 -0.14,-0.55 -0.37,-0.64c-0.05,0.14 -0.23,0.32 -0.32,0.37c-0.14,0.09 -0.32,0.09 -0.41,0.05c0,-0.18 -0.09,-0.41 -0.28,-0.46c-0.05,0.09 -0.23,0.23 -0.55,0.18c-0.27,0 -0.32,-0.04 -0.74,-0.04c-0.6,0 -1.1,0.37 -1.15,0.87c-0.04,0.37 0.09,0.64 0.18,0.78c-0.09,0.05 -0.23,0.23 -0.28,0.28c-0.04,-0.04 -0.18,-0.09 -0.32,0c0.04,0.05 0.04,0.14 0.04,0.23c-0.04,0.09 -0.27,0.5 -0.27,0.87c-0.05,0.6 0.27,0.96 0.55,1.1c-0.04,0.09 -0.04,0.18 0,0.28c0,0.05 0.05,0.09 0.18,0.09c-0.05,0.09 -0.09,0.18 -0.05,0.28c0.05,0.14 0.18,0.32 0.32,0.32c0,0.09 0.04,0.37 0.04,0.46c-0.04,0.09 -0.09,0.14 -0.04,0.28c0,0.18 0.09,0.32 0.23,0.32c0,0.09 0.04,0.18 0.09,0.23c0.05,0.05 0.09,0.09 0.18,0.14c0.09,0.09 0.18,0.14 0.32,0.14l0.28,0s0,0.37 0.04,0.73c-0.32,0.87 -0.51,1.88 -0.51,2.93c0,1.97 0.6,3.71 1.66,4.81c0,0 0.05,0.09 0.23,0.18c0,0 0.32,-0.55 0.83,-1.19c0.14,-0.18 0.28,-0.32 0.41,-0.5c0.28,-0.18 0.51,-0.41 0.74,-0.55c0.64,-0.46 1.43,-0.78 2.11,-0.92c-0.78,0.41 -1.24,0.6 -2.02,1.24c-0.46,0.41 -1.24,1.14 -1.75,2.15c0.09,0.05 0.27,0.14 0.41,0.18c0.14,-0.14 0.69,-1.19 1.56,-2.02c1.75,-1.65 3.81,-2.02 4.92,-1.97c0.05,-0.46 0.09,-0.92 0.09,-1.42c0,-0.78 -0.09,-1.51 -0.28,-2.2c1.29,-1.42 1.29,-1.42 1.29,-1.42s0.09,-0.09 0.09,-0.14" fill="#002663" id="svg_18"/>
  <g fill="#fff" id="svg_19" transform="matrix(0.155126 0 0 -0.154585 -4.23539 24.3566)">
   <path d="m42.01,118.55c-0.29,0.3 -1.78,0.89 -2.66,0.89c-1.19,0 -2.08,-0.3 -2.97,-0.59c-0.29,0 -0.29,0.59 -0.29,1.18c0.29,0.59 0.59,0.59 0.59,0.59c-0.3,5.34 -0.3,5.34 -0.3,5.34s1.48,1.18 2.08,1.18c0.29,0 0.59,0.3 0.59,0.89c0.59,-0.59 1.48,-1.48 2.07,-2.37c0.3,-0.59 0.6,-1.18 0.6,-2.07c0.29,-0.89 0.29,-2.08 0,-2.97c0.29,-0.29 0.59,-0.59 0.59,-0.88c0.29,-0.6 0,-0.6 -0.3,-1.19" id="svg_20"/>
   <path d="m90.31,102.25c0,0.89 -1.19,3.86 -2.08,4.45c12.74,5.63 12.74,5.63 12.74,5.63l-10.66,-10.08z" id="svg_21"/>
   <path d="m55.94,123c10.66,-9.78 10.66,-9.78 10.66,-9.78c-1.18,-0.3 -2.66,-2.08 -2.96,-3.26l-7.7,13.04z" id="svg_22"/>
   <path d="m62.16,104.03c-0.3,-0.59 -0.59,-0.89 -0.59,-1.78c-0.3,-0.59 0,-0.88 0,-1.48c-3.26,2.08 -3.26,2.08 -3.26,2.08c0,0.89 -0.3,2.07 -0.3,2.66l0,0.3l4.15,-1.78z" id="svg_23"/>
   <path d="m44.09,102.85c0,0.59 -1.19,20.15 -1.19,20.74c1.19,0.89 1.19,0.89 1.19,0.89c-0.89,0 -1.78,0.29 -2.08,0.89c-0.29,5.92 -0.29,5.92 -0.29,5.92c-0.89,0 -2.08,0.59 -2.38,0.89c-0.59,0.59 -0.88,1.19 -0.29,2.07c0.29,-0.29 2.07,-0.59 3.26,-0.59c0.29,0 0.89,-0.59 1.18,-0.89c0.3,0 1.19,-0.59 1.48,-0.59s0.3,-0.89 0.3,-0.89c0.3,-0.29 10.07,-25.48 10.07,-25.78c0.3,-0.29 0.89,-4.74 0.89,-5.03c0,-0.3 1.49,-3.56 1.78,-3.86c-1.48,0 -3.55,-0.88 -5.33,-2.37c-1.48,-1.77 -2.96,-5.33 -3.56,-7.11c0,0.89 -4.74,15.41 -5.03,15.71" id="svg_24"/>
   <path d="m56.53,78.85c-0.59,-3.85 -1.48,-7.11 -2.96,-9.48c-0.89,-1.78 -3.26,-4.74 -4.15,-5.93c0.89,1.78 1.78,6.52 1.48,10.07c0,2.37 -0.59,7.71 0,10.97c0.59,3.85 1.78,5.92 4.15,8.29c1.18,1.19 3.85,2.67 7.41,1.48c3.26,-5.62 3.26,-5.62 3.26,-5.62c-1.78,0.29 -3.86,0 -5.34,-0.89c-2.66,-2.08 -3.55,-4.74 -3.85,-8.89" id="svg_25"/>
   <path d="m56.83,71.14c0.59,1.78 1.77,6.52 1.77,8c0.6,2.08 0.89,4.74 3.26,6.82c1.19,0.89 2.97,1.18 3.86,0.89c3.25,-6.82 3.25,-6.82 3.25,-6.82c0.3,-0.89 1.19,-1.18 2.08,-0.89c-3.26,-1.18 -11.26,-5.03 -14.22,-8" id="svg_26"/>
   <path d="m85.57,93.07c-0.6,-0.59 -0.3,-1.48 0,-2.07c0.29,-0.6 2.07,-3.86 2.07,-3.86c0.59,-1.77 0.89,-2.37 1.48,-3.26l3.26,0c-1.18,2.67 -4.15,7.71 -4.15,7.71l0,4.15c-0.89,-0.6 -2.07,-1.78 -2.66,-2.67" id="svg_27"/>
   <path d="m71.05,115c1.48,0.29 4.44,0 5.33,-0.6c-2.96,17.48 -2.96,17.48 -2.96,17.48l-2.37,-16.88z" id="svg_28"/>
   <path d="m45.27,131.29s0,0.89 -0.29,0.89s-1.19,0.59 -1.49,0.59c-0.29,0.3 -0.89,0.89 -1.18,0.89c-1.19,0 -2.96,0.3 -3.26,0.59c-0.59,-0.88 -0.3,-1.48 0.3,-2.07c0.29,-0.3 1.48,-0.89 2.37,-0.89c0.29,-5.92 0.29,-5.92 0.29,-5.92c0.3,-0.6 1.19,-0.89 2.08,-0.89c-1.19,-0.89 -1.19,-0.89 -1.19,-0.89c0,-0.59 1.19,-20.15 1.19,-20.74c0.29,-0.3 5.03,-14.82 5.03,-15.71c0.6,1.78 2.08,5.34 3.56,7.11c1.78,1.49 3.85,2.37 5.33,2.37c-0.29,0.3 -1.78,3.56 -1.78,3.86c0,0.29 -0.59,4.74 -0.88,5.03c0,0.3 -9.78,25.49 -10.08,25.78" id="svg_29"/>
   <path d="m39.35,136.03c2.66,0 3.85,-1.18 4.44,-1.78c0.3,0.89 0,1.78 -0.89,2.37c-0.59,0.6 -1.78,1.19 -3.85,1.19c-1.19,0 -2.67,-0.3 -3.26,-1.19c-0.89,-0.59 -0.89,-1.18 -0.89,-2.37c0.3,0.89 2.08,1.78 4.45,1.78" id="svg_30"/>
   <path d="m34.31,150.25c0,-0.88 0.29,-2.07 0.59,-2.66c0.3,-0.3 0.89,-1.19 1.48,-1.19c0.59,0.3 1.48,1.48 2.96,1.48c1.19,0 1.78,-1.48 2.67,-1.77c0.59,0 0.89,0.89 1.78,0.89c0.59,0 0.59,-0.3 1.18,-0.6c0,0.6 0.6,0.89 1.49,1.48c0.88,0.89 4.74,1.78 6.22,2.97c0.89,0.89 0.89,2.07 0.89,2.96c-0.6,-0.89 -2.37,-1.78 -3.85,-1.78c-0.89,0 -2.97,0.3 -3.56,0.59c0.3,0.6 0.59,1.49 0.3,2.08c-0.6,-0.59 -2.97,-0.59 -3.86,-0.59c-0.88,0 -2.66,0.29 -3.85,0.29c-2.96,-0.29 -4.44,-2.37 -4.44,-4.15" id="svg_31"/>
   <path d="m39.35,141.07c6.51,0 9.18,-2.96 9.48,-5.33c0.29,0.59 0.29,1.48 0,2.07c0,0.89 -0.89,2.67 -0.89,3.26s0,0.89 0.29,1.48c-0.59,0 -1.77,-0.59 -2.37,0c-0.88,0.3 -0.29,1.78 -1.18,2.07c-0.89,0.3 -2.08,-0.88 -2.96,-0.59c-0.89,0 -1.78,1.19 -2.37,1.19c-1.19,0 -1.49,-1.19 -2.67,-1.19c-0.89,-0.29 -1.78,0.3 -2.37,0.3c-0.3,-0.3 -0.89,-0.59 -0.89,-1.19c-0.3,-0.29 -0.59,-0.59 -1.19,-0.89c-0.59,0 -1.18,0.3 -1.48,0.3c0,-0.3 0.3,-1.48 0,-2.07c-0.29,-0.89 -0.89,-1.78 -1.18,-2.67c0,-1.19 0.29,-1.48 0.59,-2.07c-0.3,3.26 3.56,5.63 9.19,5.33" id="svg_32"/>
   <path d="m35.49,128.92c-0.59,0 -1.48,-0.89 -2.07,-1.48c0.3,-0.59 0.89,-1.78 1.18,-2.07c0.3,0.59 0.89,1.48 1.19,1.77c0.3,0.3 0.59,0.3 0.89,0.6c0.59,0.29 0.59,0.29 0.59,0.59c0,0.59 0,0.59 -0.3,0.89c0.3,0 0.89,0 1.19,0.29c0.3,0.3 0.3,0.6 0.3,1.19c0,0.3 -0.3,0.3 -0.6,0.3c-0.29,0 -1.48,0 -1.77,0c0,0 0.59,0.59 0.88,0.59c0.3,0.29 0.3,0.29 0.6,0.59c0,0.3 0,0.59 -0.3,1.19c-1.18,0 -3.26,-1.19 -3.85,-1.49c0.59,-1.18 0.59,-1.18 0.59,-1.18c-0.89,0 -0.89,0 -0.89,0c-0.29,-0.59 0,-1.48 0,-1.78l2.37,0z" id="svg_33"/>
   <path d="m87.64,103.74c-0.29,0.88 -2.37,2.96 -5.63,5.63c-2.66,2.07 -6.52,3.85 -9.48,3.85c-5.33,0 -7.7,-3.56 -8,-5.63c-0.3,-0.89 -0.3,-2.37 0,-2.97c-0.89,-0.59 -1.18,-1.18 -1.18,-2.07c-0.3,-0.59 0,-1.48 0.59,-2.07c-0.3,0.89 0.29,1.77 0.89,2.37c0.29,0.59 1.18,0.89 1.77,1.18c0.3,-1.18 0.3,-1.18 0.3,-1.18c-0.59,-0.6 -1.48,-1.48 -1.78,-1.78c0.3,-2.37 0.3,-2.37 0.3,-2.37c1.78,0.89 1.78,0.89 1.78,0.89c0.29,-0.59 0.29,-0.59 0.29,-0.59c-0.59,-4.15 -0.59,-4.15 -0.59,-4.15l0.89,0c2.07,-0.6 2.07,-0.6 2.07,-0.6c-2.07,-1.48 -2.07,-1.48 -2.07,-1.48c0,-0.59 0,-0.59 0,-0.59s0.3,0.3 1.19,0.3c0.59,0 2.07,-0.89 2.07,-0.89c0,-0.3 0,-0.3 0,-0.3c-0.59,0 -0.59,0 -0.59,0c-2.67,0 -2.67,0 -2.67,0c0,-0.59 0.3,-0.89 0.59,-0.89c0.3,0 0.89,0.3 1.19,0.3c0,0 0.59,-0.3 1.18,-0.3c-0.59,-0.59 -0.59,-0.59 -0.59,-0.59s-0.3,-0.3 -0.89,-0.3c-0.29,0 -0.59,-0.29 -0.59,-0.59s0.3,-1.48 0.3,-1.48c0.29,-1.19 1.77,-0.89 1.77,-0.89c0.89,0 3.85,1.19 3.85,1.19c-2.66,-3.86 -2.66,-3.86 -2.66,-3.86c1.18,-4.14 1.18,-4.14 1.18,-4.14c1.78,0.59 7.11,2.66 13.04,3.55c-0.59,0.89 -0.59,1.48 -1.48,2.96c-2.96,7.12 -2.96,7.12 -2.96,7.12c0.29,0.88 0.29,0.88 0.29,0.88c0.59,-0.29 1.78,0.3 2.37,0.89c0.6,0.6 1.48,1.49 1.78,2.08c-0.3,0.29 -0.89,0.29 -1.18,0c-0.3,-0.3 -0.6,-0.89 -1.19,-0.59c-0.59,0.29 -0.3,0.88 0,1.48c0,0.59 -0.89,0.59 -1.19,0c-0.59,-0.3 -1.48,0 -2.07,0.59c-0.89,0.59 -4.15,3.26 -5.04,3.85c-1.77,0.89 -4.14,1.19 -5.63,0.89c-0.88,0 -1.77,-0.59 -2.07,-0.3c-1.19,1.78 -1.19,1.78 -1.19,1.78c0.3,0.3 0.3,0.3 0.3,0.3c0.3,-0.3 0.89,-0.6 1.19,-0.6c0.59,0.3 2.37,0.6 4.14,0.6c2.37,0.29 5.34,-0.6 6.52,-1.19c0,-1.78 3.26,-3.55 4.74,-3.85c1.19,0 1.78,0.3 2.67,0.59c-3.26,2.67 -3.26,2.67 -3.26,2.67c1.78,2.07 1.78,2.07 1.78,2.07s2.67,-2.37 2.96,-2.96l0,1.19zm-18.66,-3.26s1.18,0.89 2.66,1.18c1.78,0.3 3.85,-0.89 5.34,-1.78c-0.3,-0.59 -0.3,-0.59 -0.3,-0.59c-2.08,-0.59 -2.08,-0.59 -2.08,-0.59c-0.59,0.59 -1.18,0.59 -2.07,0.59s-1.48,-0.29 -1.48,-0.29c0.59,-0.6 0.59,-0.6 0.59,-0.6c-0.89,-0.29 -0.89,-0.29 -0.89,-0.29c-0.59,0.59 -1.18,1.18 -1.77,1.48l0,0.89zm-3.26,4.74c-0.6,2.07 0.88,3.85 1.77,4.44c0.89,-2.37 0.89,-2.37 0.89,-2.37c-0.89,-0.29 -2.07,-1.48 -2.66,-2.07m9.77,2.07c-1.18,0.89 -4.44,0.59 -5.63,0.3c-0.88,2.96 -0.88,2.96 -0.88,2.96c0.59,0.3 2.07,0.89 3.25,0.89s2.67,-0.3 3.56,-0.89l-0.3,-3.26zm6.23,-2.67c-1.49,0.89 -3.86,2.08 -4.74,2.38c1.18,2.96 1.18,2.96 1.18,2.96c0.89,-0.59 4.44,-2.67 5.04,-3.26l-1.48,-2.08z" id="svg_34"/>
   <path d="m81.12,112.33c1.19,-0.3 3.85,-2.37 4.45,-2.96c6.52,13.63 6.52,13.63 6.52,13.63l-10.97,-10.67z" id="svg_35"/>
  </g>
  <path d="m65.53,9.01c0.32,0 0.6,0.23 0.6,0.55c0,0.37 -0.28,0.6 -0.6,0.6c-0.28,0 -0.55,-0.23 -0.55,-0.6c0,-0.32 0.28,-0.55 0.55,-0.55m0,1.01c0.27,0 0.46,-0.18 0.46,-0.46s-0.18,-0.46 -0.46,-0.46c-0.23,0 -0.41,0.18 -0.41,0.46s0.18,0.46 0.41,0.46m-0.18,-0.73l0.23,0c0.14,0 0.23,0.04 0.23,0.18c0,0.09 -0.04,0.14 -0.14,0.14c0.14,0.32 0.14,0.32 0.14,0.32c-0.09,0 -0.09,0 -0.09,0c-0.18,-0.27 -0.18,-0.27 -0.18,-0.27c-0.09,0 -0.09,0 -0.09,0c0,0.27 0,0.27 0,0.27c-0.09,0 -0.09,0 -0.09,0l0,-0.64l-0.01,0zm0.09,0.27l0.14,0c0.05,0 0.14,-0.04 0.14,-0.14c0,-0.04 -0.09,-0.04 -0.14,-0.04c-0.14,0 -0.14,0 -0.14,0l0,0.18z" fill="#616265" id="svg_36"/>
  <path d="m13.18,12.17l19.95,0l0,-0.23l-19.95,0l0,0.23z" fill="#616265" id="svg_37"/>
  <path d="m35.89,12.17l28.77,0l0,-0.23l-28.77,0l0,0.23z" fill="#616265" id="svg_38"/>
  <path d="m24.67,16.66l0.55,0l0,-2.75l-0.55,0l0,2.75z" fill="#616265" id="svg_39"/>
  <path d="m26.74,13.91l0.46,0l1.2,1.97l0,-1.97l0.46,0l0,2.75l-0.46,0l-1.15,-1.97l-0.05,0l0,1.97l-0.46,0l0,-2.75z" fill="#616265" id="svg_40"/>
  <path d="m30.51,15.83c0.18,0.27 0.51,0.41 0.83,0.41c0.23,0 0.6,-0.09 0.6,-0.37c0,-0.18 -0.23,-0.28 -0.6,-0.37c-0.28,-0.04 -0.28,-0.04 -0.28,-0.04c-0.46,-0.09 -0.87,-0.28 -0.87,-0.78c0,-0.6 0.6,-0.87 1.1,-0.87c0.46,0 0.87,0.18 1.15,0.55c-0.41,0.32 -0.41,0.32 -0.41,0.32c-0.14,-0.23 -0.41,-0.37 -0.74,-0.37c-0.32,0 -0.55,0.09 -0.55,0.28c0,0.23 0.28,0.32 0.6,0.37c0.32,0.09 0.32,0.09 0.32,0.09c0.41,0.09 0.83,0.23 0.83,0.78c0,0.69 -0.64,0.92 -1.24,0.92c-0.46,0 -0.92,-0.23 -1.2,-0.6l0.46,-0.32z" fill="#616265" id="svg_41"/>
  <path d="m36.07,15.83c0,0.55 -0.46,0.92 -1.15,0.92c-0.64,0 -1.1,-0.37 -1.1,-0.92l0,-1.92l0.51,0c0,1.79 0,1.79 0,1.79c0,0.32 0.14,0.55 0.6,0.55c0.46,0 0.6,-0.23 0.6,-0.55l0,-1.79l0.55,0l0,1.92l-0.01,0z" fill="#616265" id="svg_42"/>
  <path d="m37.54,13.91l1.15,0c0.6,0 0.96,0.32 0.96,0.83c0,0.64 -0.41,0.78 -0.55,0.82c0.6,1.1 0.6,1.1 0.6,1.1c-0.6,0 -0.6,0 -0.6,0c-0.55,-1.01 -0.55,-1.01 -0.55,-1.01c-0.51,0 -0.51,0 -0.51,0c0,1.01 0,1.01 0,1.01c-0.51,0 -0.51,0 -0.51,0l0,-2.75l0.01,0zm0.51,1.28l0.6,0c0.28,0 0.46,-0.14 0.46,-0.41s-0.18,-0.41 -0.55,-0.41c-0.51,0 -0.51,0 -0.51,0l0,0.83l0,-0.01z" fill="#616265" id="svg_43"/>
  <path d="m41.68,13.91l0.6,0l0.92,2.75l-0.55,0l-0.14,-0.55l-1.06,0l-0.18,0.55l-0.55,0l0.96,-2.75zm0.28,0.5l-0.37,1.24l0.78,0l-0.41,-1.24z" fill="#616265" id="svg_44"/>
  <path d="m44.39,13.91l0.46,0l1.15,1.97l0.05,0l0,-1.97l0.46,0l0,2.75l-0.51,0l-1.15,-1.97l0,1.97l-0.46,0l0,-2.75z" fill="#616265" id="svg_45"/>
  <path d="m49.77,14.82c-0.05,-0.32 -0.28,-0.5 -0.6,-0.5c-0.55,0 -0.78,0.46 -0.78,0.96c0,0.46 0.23,0.96 0.78,0.96c0.37,0 0.55,-0.23 0.64,-0.55c0.51,0.23 0.51,0.23 0.51,0.23c-0.23,0.55 -0.6,0.82 -1.15,0.82c-0.92,0 -1.33,-0.69 -1.33,-1.47s0.51,-1.47 1.33,-1.47c0.55,0 0.97,0.32 1.1,0.87l-0.51,0.14l0.01,0.01z" fill="#616265" id="svg_46"/>
  <path d="m51.42,13.91l1.98,0l0,0.46l-1.42,0l0,0.64l1.29,0l0,0.46l-1.29,0l0,0.73l1.52,0l0,0.46l-2.07,0l0,-2.75l-0.01,0z" fill="#616265" id="svg_47"/>
 </g>
</svg>