<?xml version="1.0"?>
<svg width="1024px" height="229px" viewBox="0 0 1024 229" version="1.1" xmlns="http://www.w3.org/2000/svg">
    <path d="M966.885681,25.4591062 L964.542819,25.4003334 L964.542819,6.07936598 L924.311602,6.07936598 L924.311602,222.014001 L971.144699,222.014001 L971.144699,101.510356 C971.144699,81.9261188 973.769349,59.5465484 993.615247,49.7516118 C1001.71463,45.4467025 1014.67686,41.9171117 1024,41.9171117 L1024,0 C1001.31207,0.789005252 980.653018,6.66226374 966.885681,25.4591062 L966.885681,25.4591062 Z M777.311872,191.172752 C734.374689,191.172752 700.75743,155.520986 700.75743,114.786577 C700.75743,72.4741579 733.163808,37.2144794 777.716036,37.2144794 C823.488002,37.2144794 855.491021,71.3019216 855.491021,114.786577 C855.491021,156.694028 821.056578,191.172752 777.311872,191.172752 L777.311872,191.172752 Z M852.520175,34.0971035 C835.637073,11.0082335 806.733717,0 777.716036,0 C709.668359,0 658.630185,49.3587194 658.630185,115.176249 C658.630185,180.594446 710.479907,228.386426 777.716036,228.386426 C807.474416,228.386426 836.361669,216.3074 852.520175,191.806372 L852.520175,222.014001 L898.475705,222.014001 L898.475705,6.07936598 L852.520175,6.07936598 L852.520175,34.0971035 L852.520175,34.0971035 Z M536.703915,37.2144794 C566.679674,37.2144794 587.336315,52.4905872 599.891965,77.9561342 L646.474674,77.9561342 C633.914193,31.3404158 584.500726,0 536.297336,0 C469.867925,0 420.859427,50.5349813 420.859427,113.997572 C420.859427,177.462578 469.059597,228.386426 535.890757,228.386426 C587.336315,228.386426 629.866918,197.82938 646.474674,151.215272 L599.487801,151.215272 C587.741284,176.283901 564.652414,191.172752 535.890757,191.172752 C490.93195,191.172752 462.984256,155.131314 462.984256,113.997572 C462.984256,71.3019216 490.52376,37.2144794 536.703915,37.2144794 L536.703915,37.2144794 Z M337.006686,88.5376608 C321.613838,83.839054 302.17452,79.5244834 302.17452,60.3283077 C302.17452,45.8339592 314.32359,37.2144794 328.499921,37.2144794 C345.514256,37.2144794 355.234318,47.7919804 357.260773,63.4625908 L399.387213,63.4625908 C398.574859,25.8568293 369.006485,0 330.523961,0 C293.666145,0 260.04647,25.4591062 260.04647,62.6751958 C260.04647,139.462314 362.524565,115.958814 362.524565,161.39666 C362.524565,180.199138 348.752398,191.172752 330.120603,191.172752 C305.008498,191.172752 298.912224,173.98693 297.287518,151.662106 L251.043759,151.662106 C251.043759,185.739887 267.336717,211.934057 300.551423,223.292512 C309.869736,226.433236 319.588993,228.386426 329.312275,228.386426 C372.246237,228.386426 404.65342,201.748643 404.65342,159.052992 C404.65342,117.130245 373.867723,99.5024185 337.006686,88.5376608 L337.006686,88.5376608 Z M121.110696,191.172752 C77.3651854,191.172752 42.1248294,156.305966 42.1248294,113.997572 C42.1248294,71.6907884 77.3651854,37.2144794 121.110696,37.2144794 C164.859427,37.2144794 200.096563,71.3019216 200.096563,113.6079 C200.096563,155.913074 165.261176,191.172752 121.110696,191.172752 L121.110696,191.172752 Z M121.110696,0 C56.2987452,0 0,48.9690474 0,112.818895 C0,177.070491 55.0870585,228.386426 121.110696,228.386426 C189.161594,228.386426 242.224612,175.498921 242.224612,113.6079 C242.224612,49.3587194 186.730975,0 121.110696,0 L121.110696,0 Z" fill="#2854A1"></path>
</svg>
